<svg width="136" height="41" viewBox="0 0 136 41" fill="none" xmlns="http://www.w3.org/2000/svg">
    <path d="M56.1956 29.3971C54.7077 29.3971 53.3937 29.1459 52.2536 28.6435C51.1135 28.1218 50.215 27.3875 49.558 26.4406C48.901 25.4744 48.5628 24.3054 48.5435 22.9334H52.4565C52.4952 23.8803 52.8333 24.6822 53.471 25.3392C54.128 25.9769 55.0266 26.2957 56.1667 26.2957C57.1522 26.2957 57.9348 26.0638 58.5145 25.6001C59.0942 25.117 59.384 24.4793 59.384 23.687C59.384 22.8561 59.1232 22.2088 58.6014 21.745C58.099 21.2812 57.4227 20.9044 56.5724 20.6146C55.7222 20.3247 54.814 20.0155 53.8478 19.687C52.2826 19.146 51.0845 18.4503 50.2536 17.6001C49.442 16.7498 49.0362 15.6194 49.0362 14.2088C49.0169 13.0107 49.2971 11.9866 49.8768 11.1363C50.4759 10.2668 51.2874 9.60011 52.3116 9.13634C53.3357 8.65325 54.5145 8.41171 55.8478 8.41171C57.2005 8.41171 58.3889 8.65325 59.413 9.13634C60.4565 9.61943 61.2681 10.2958 61.8478 11.1653C62.4468 12.0349 62.7657 13.0687 62.8043 14.2668H58.8333C58.814 13.5518 58.5338 12.9238 57.9927 12.3827C57.471 11.8223 56.7367 11.5421 55.7898 11.5421C54.9783 11.5228 54.2923 11.7257 53.7319 12.1508C53.1908 12.5566 52.9203 13.1557 52.9203 13.9479C52.9203 14.6242 53.1328 15.1653 53.558 15.5711C53.9831 15.9576 54.5628 16.2861 55.2971 16.5566C56.0314 16.8271 56.872 17.117 57.8188 17.4262C58.8236 17.774 59.7415 18.1798 60.5724 18.6436C61.4034 19.1073 62.07 19.7257 62.5724 20.4986C63.0748 21.2522 63.326 22.2281 63.326 23.4261C63.326 24.4889 63.0555 25.4744 62.5145 26.3827C61.9734 27.2909 61.1715 28.0252 60.1087 28.5855C59.0459 29.1266 57.7415 29.3971 56.1956 29.3971ZM66.4762 29.0493V8.17982H70.1863V16.8754C70.6694 16.0832 71.3167 15.4648 72.1283 15.0204C72.9592 14.5566 73.9061 14.3247 74.9689 14.3247C76.7467 14.3247 78.1186 14.8851 79.0848 16.0059C80.0703 17.1267 80.5631 18.7692 80.5631 20.9334V29.0493H76.8819V21.2812C76.8819 20.0445 76.6307 19.0977 76.1283 18.4407C75.6452 17.7837 74.8723 17.4552 73.8095 17.4552C72.766 17.4552 71.8964 17.8223 71.2008 18.5566C70.5245 19.2909 70.1863 20.315 70.1863 21.6291V29.0493H66.4762ZM91.0094 29.3971C89.6181 29.3971 88.362 29.0783 87.2413 28.4406C86.1398 27.8029 85.2606 26.9237 84.6036 25.803C83.9659 24.6629 83.6471 23.3489 83.6471 21.8609C83.6471 20.373 83.9756 19.0687 84.6326 17.9479C85.2896 16.8078 86.1688 15.9189 87.2703 15.2812C88.391 14.6436 89.6471 14.3247 91.0384 14.3247C92.4103 14.3247 93.647 14.6436 94.7485 15.2812C95.8693 15.9189 96.7485 16.8078 97.3862 17.9479C98.0432 19.0687 98.3717 20.373 98.3717 21.8609C98.3717 23.3489 98.0432 24.6629 97.3862 25.803C96.7485 26.9237 95.8693 27.8029 94.7485 28.4406C93.6277 29.0783 92.3814 29.3971 91.0094 29.3971ZM91.0094 26.1798C91.9756 26.1798 92.8161 25.8223 93.5311 25.1073C94.2461 24.373 94.6036 23.2909 94.6036 21.8609C94.6036 20.431 94.2461 19.3585 93.5311 18.6436C92.8161 17.9093 91.9852 17.5421 91.0384 17.5421C90.0529 17.5421 89.2026 17.9093 88.4876 18.6436C87.792 19.3585 87.4442 20.431 87.4442 21.8609C87.4442 23.2909 87.792 24.373 88.4876 25.1073C89.2026 25.8223 90.0432 26.1798 91.0094 26.1798ZM101.689 35.4261V14.6726H104.993L105.399 16.7305C105.863 16.0928 106.472 15.5325 107.225 15.0494C107.998 14.5663 108.993 14.3247 110.211 14.3247C111.563 14.3247 112.771 14.6532 113.834 15.3102C114.897 15.9672 115.737 16.8658 116.356 18.0059C116.974 19.146 117.283 20.4407 117.283 21.8899C117.283 23.3392 116.974 24.6339 116.356 25.774C115.737 26.8947 114.897 27.7836 113.834 28.4406C112.771 29.0783 111.563 29.3971 110.211 29.3971C109.128 29.3971 108.182 29.1942 107.37 28.7884C106.558 28.3827 105.901 27.8126 105.399 27.0783V35.4261H101.689ZM109.428 26.1508C110.607 26.1508 111.583 25.7546 112.356 24.9624C113.128 24.1701 113.515 23.146 113.515 21.8899C113.515 20.6339 113.128 19.6001 112.356 18.7885C111.583 17.9769 110.607 17.5711 109.428 17.5711C108.23 17.5711 107.244 17.9769 106.472 18.7885C105.718 19.5808 105.341 20.6049 105.341 21.8609C105.341 23.117 105.718 24.1508 106.472 24.9624C107.244 25.7546 108.23 26.1508 109.428 26.1508ZM121.092 35.4261L124.426 28.0928H123.556L117.962 14.6726H121.991L126.02 24.7885L130.223 14.6726H134.165L125.034 35.4261H121.092Z" fill="#201F22"/>
    <mask id="mask0_35_1885" style="mask-type:alpha" maskUnits="userSpaceOnUse" x="0" y="0" width="37" height="41">
        <path d="M14.8369 0.930413C16.9856 -0.310137 19.6329 -0.310138 21.7816 0.930412L33.1461 7.49174C35.2948 8.73229 36.6185 11.0249 36.6185 13.506V26.6287C36.6185 29.1098 35.2948 31.4024 33.1462 32.643L21.7816 39.2043C19.6329 40.4448 16.9856 40.4448 14.8369 39.2043L3.47235 32.643C1.32365 31.4024 0 29.1098 0 26.6287V13.506C0 11.0249 1.32365 8.73229 3.47235 7.49174L14.8369 0.930413Z" fill="#C4C4C4"/>
    </mask>
    <g mask="url(#mask0_35_1885)">
        <rect width="23.1744" height="23.1744" transform="matrix(0.866025 0.5 -0.866025 0.5 18.3096 -1.41901)" fill="#CFCFCF"/>
        <rect width="21.3236" height="21.3236" transform="matrix(0.866025 0.5 -2.20305e-08 1 -0.157959 10.3359)" fill="#767676"/>
        <rect width="21.3236" height="21.3236" transform="matrix(0.866025 -0.5 2.20305e-08 1 18.3096 21.0005)" fill="#201F22"/>
    </g>
</svg>